<?xml version="1.0" encoding="UTF-8" standalone="no"?>
<!-- Generator: Adobe Illustrator 22.1.0, SVG Export Plug-In . SVG Version: 6.00 Build 0)  -->

<svg
   xmlns:dc="http://purl.org/dc/elements/1.1/"
   xmlns:cc="http://creativecommons.org/ns#"
   xmlns:rdf="http://www.w3.org/1999/02/22-rdf-syntax-ns#"
   xmlns:svg="http://www.w3.org/2000/svg"
   xmlns="http://www.w3.org/2000/svg"
   xmlns:xlink="http://www.w3.org/1999/xlink"
   xmlns:sodipodi="http://sodipodi.sourceforge.net/DTD/sodipodi-0.dtd"
   xmlns:inkscape="http://www.inkscape.org/namespaces/inkscape"
   version="1.1"
   id="Capa_1"
   x="0px"
   y="0px"
   viewBox="0 0 475.60002 690.10005"
   xml:space="preserve"
   sodipodi:docname="presupost-calendari_03 _es.svg"
   width="475.60001"
   height="690.10004"
   inkscape:version="0.92.4 (5da689c313, 2019-01-14)"><metadata
   id="metadata601"><rdf:RDF><cc:Work
       rdf:about=""><dc:format>image/svg+xml</dc:format><dc:type
         rdf:resource="http://purl.org/dc/dcmitype/StillImage" /><dc:title></dc:title></cc:Work></rdf:RDF></metadata><defs
   id="defs599" /><sodipodi:namedview
   pagecolor="#ffffff"
   bordercolor="#666666"
   borderopacity="1"
   objecttolerance="10"
   gridtolerance="10"
   guidetolerance="10"
   inkscape:pageopacity="0"
   inkscape:pageshadow="2"
   inkscape:window-width="1600"
   inkscape:window-height="847"
   id="namedview597"
   showgrid="false"
   fit-margin-top="0"
   fit-margin-left="0"
   fit-margin-right="0"
   fit-margin-bottom="0"
   inkscape:zoom="0.1633105"
   inkscape:cx="247.84999"
   inkscape:cy="351.75004"
   inkscape:window-x="-8"
   inkscape:window-y="-8"
   inkscape:window-maximized="1"
   inkscape:current-layer="Capa_1" />
<style
   type="text/css"
   id="style2">
	.st0{clip-path:url(#SVGID_2_);fill:#FFFFFF;fill-opacity:0;}
	.st1{fill:#B8B8ED;}
	.st2{fill:#3B31F5;}
	.st3{clip-path:url(#SVGID_4_);}
	.st4{clip-path:url(#SVGID_6_);}
	.st5{clip-path:url(#SVGID_8_);}
	.st6{clip-path:url(#SVGID_10_);}
	.st7{clip-path:url(#SVGID_12_);}
	.st8{clip-path:url(#SVGID_14_);}
</style>
<g
   id="g16"
   transform="translate(-181.7,-384.2)">
	<g
   id="g14">
		<g
   id="g12">
			<defs
   id="defs5">
				<rect
   id="SVGID_1_"
   x="-3433.8"
   y="-3198.3999"
   width="499"
   height="373" />
			</defs>
			<clipPath
   id="SVGID_2_">
				<use
   xlink:href="#SVGID_1_"
   style="overflow:visible"
   id="use7"
   x="0"
   y="0"
   width="100%"
   height="100%" />
			</clipPath>
			<rect
   x="-3433.8"
   y="-3198.3999"
   class="st0"
   width="499"
   height="373"
   clip-path="url(#SVGID_2_)"
   id="rect10"
   style="fill:#ffffff;fill-opacity:0" />
		</g>
	</g>
</g>


<g
   id="g594"
   transform="translate(-181.7,-384.2)">
	<g
   id="g404">
		<rect
   x="222.10001"
   y="988.90002"
   class="st1"
   width="429.89999"
   height="85.400002"
   id="rect402"
   style="fill:#b8b8ed" />
	</g>
	<g
   id="g408">
		<rect
   x="222.10001"
   y="404.20001"
   class="st1"
   width="429.89999"
   height="102.6"
   id="rect406"
   style="fill:#b8b8ed" />
	</g>
	<g
   id="g412">
		<rect
   x="221.2"
   y="603.90002"
   class="st1"
   width="168.3"
   height="342.70001"
   id="rect410"
   style="fill:#b8b8ed" />
	</g>
	<g
   id="g416">
		<rect
   x="481.60001"
   y="603.90002"
   class="st1"
   width="168.3"
   height="342.70001"
   id="rect414"
   style="fill:#b8b8ed" />
	</g>
	<g
   id="g436">
		<path
   class="st2"
   d="m 299.4,439 v -34.5 h 10.8 c 8.1,0 16,5.2 16,17.2 0,12.1 -7.9,17.2 -16,17.2 z m 8.8,-5.9 c 5.5,0 11.6,-2.2 11.6,-11.3 0,-9.2 -6.1,-11.3 -11.6,-11.3 h -2.4 v 22.6 z"
   id="path418"
   inkscape:connector-curvature="0"
   style="fill:#3b31f5" />
		<path
   class="st2"
   d="m 353.3,404.6 v 5.9 h -14.9 v 7.2 h 12 v 5.9 h -12 v 9.5 h 15.4 V 439 H 332 v -34.5 h 21.3 z"
   id="path420"
   inkscape:connector-curvature="0"
   style="fill:#3b31f5" />
		<path
   class="st2"
   d="m 382.5,416.1 c -1.3,-3.5 -3.7,-6 -8.5,-6 -5.3,0 -9.8,3.7 -9.8,11.7 0,8 4.5,11.7 9.8,11.7 4.8,0 7.2,-2.5 8.5,-6 l 5.8,1.5 c -1.6,6.6 -6.8,10.4 -14.3,10.4 -8.6,0 -16.3,-6.1 -16.3,-17.6 0,-11.5 7.7,-17.6 16.3,-17.6 7.5,0 12.6,3.8 14.3,10.4 z"
   id="path422"
   inkscape:connector-curvature="0"
   style="fill:#3b31f5" />
		<path
   class="st2"
   d="M 410.5,423.6 420,439 h -7.1 l -9.3,-14.9 h -3.3 V 439 h -6.4 v -34.5 h 12.6 c 6.9,0 10.5,4.1 10.5,9.8 -0.1,4.6 -2.3,8 -6.5,9.3 z m 0,-9.2 c 0,-2.8 -1.7,-3.9 -4,-3.9 h -6.2 v 7.8 h 6.2 c 2.3,-0.1 4,-1.1 4,-3.9 z"
   id="path424"
   inkscape:connector-curvature="0"
   style="fill:#3b31f5" />
		<path
   class="st2"
   d="m 445.9,404.6 v 5.9 H 431 v 7.2 h 12 v 5.9 h -12 v 9.5 h 15.4 v 5.9 h -21.8 v -34.5 h 21.3 z"
   id="path426"
   inkscape:connector-curvature="0"
   style="fill:#3b31f5" />
		<path
   class="st2"
   d="m 451.1,404.6 h 25.5 v 5.9 h -9.5 V 439 h -6.4 v -28.5 h -9.5 v -5.9 z"
   id="path428"
   inkscape:connector-curvature="0"
   style="fill:#3b31f5" />
		<path
   class="st2"
   d="m 511.7,421.8 c 0,12 -7.5,17.6 -16.2,17.6 -8.7,0 -16.2,-5.7 -16.2,-17.6 0,-11.9 7.5,-17.6 16.2,-17.6 8.7,0 16.2,5.6 16.2,17.6 z m -26,0 c 0,8.2 4.6,11.7 9.7,11.7 5.1,0 9.7,-3.5 9.7,-11.7 0,-8.2 -4.6,-11.7 -9.7,-11.7 -5.1,0 -9.7,3.5 -9.7,11.7 z"
   id="path430"
   inkscape:connector-curvature="0"
   style="fill:#3b31f5" />
		<path
   class="st2"
   d="m 530.7,439 v -34.5 h 10.8 c 8.1,0 16,5.2 16,17.2 0,12.1 -7.9,17.2 -16,17.2 z m 8.8,-5.9 c 5.5,0 11.6,-2.2 11.6,-11.3 0,-9.2 -6.1,-11.3 -11.6,-11.3 h -2.4 v 22.6 z"
   id="path432"
   inkscape:connector-curvature="0"
   style="fill:#3b31f5" />
		<path
   class="st2"
   d="m 584.6,404.6 v 5.9 h -14.9 v 7.2 h 12 v 5.9 h -12 v 9.5 h 15.4 v 5.9 h -21.8 v -34.5 h 21.3 z"
   id="path434"
   inkscape:connector-curvature="0"
   style="fill:#3b31f5" />
	</g>
	<g
   id="g454">
		<path
   class="st2"
   d="m 325.3,486.3 h -10.9 l -2.5,8.1 H 305 l 11.7,-34.5 h 6.4 l 11.7,34.5 h -6.9 z m -9.1,-5.9 h 7.3 l -3.6,-12 z"
   id="path438"
   inkscape:connector-curvature="0"
   style="fill:#3b31f5" />
		<path
   class="st2"
   d="m 345.4,459.9 v 28.5 H 360 v 5.9 h -21 v -34.5 h 6.4 z"
   id="path440"
   inkscape:connector-curvature="0"
   style="fill:#3b31f5" />
		<path
   class="st2"
   d="m 386.9,471.5 c -1.3,-3.5 -3.7,-6 -8.5,-6 -5.3,0 -9.8,3.7 -9.8,11.7 0,8 4.5,11.7 9.8,11.7 4.8,0 7.2,-2.5 8.5,-6 l 5.8,1.5 c -1.6,6.6 -6.8,10.4 -14.3,10.4 -8.6,0 -16.3,-6.1 -16.3,-17.6 0,-11.5 7.7,-17.6 16.3,-17.6 7.5,0 12.6,3.8 14.3,10.4 z"
   id="path442"
   inkscape:connector-curvature="0"
   style="fill:#3b31f5" />
		<path
   class="st2"
   d="m 414.7,486.3 h -11 l -2.5,8.1 h -6.9 L 406,459.9 h 6.4 l 11.7,34.5 h -6.9 z m -9.1,-5.9 h 7.3 l -3.6,-12 z"
   id="path444"
   inkscape:connector-curvature="0"
   style="fill:#3b31f5" />
		<path
   class="st2"
   d="m 434.8,459.9 v 28.5 h 14.6 v 5.9 h -21 v -34.5 h 6.4 z"
   id="path446"
   inkscape:connector-curvature="0"
   style="fill:#3b31f5" />
		<path
   class="st2"
   d="M 455.2,494.4 V 459.9 H 466 c 8.1,0 16,5.2 16,17.2 0,12.1 -7.9,17.2 -16,17.2 z m 8.7,-5.9 c 5.5,0 11.6,-2.2 11.6,-11.3 0,-9.2 -6.1,-11.3 -11.6,-11.3 h -2.4 v 22.6 z"
   id="path448"
   inkscape:connector-curvature="0"
   style="fill:#3b31f5" />
		<path
   class="st2"
   d="m 490.4,449.9 h 8.3 l -6.7,7.3 h -4.7 z m 3.8,44.5 h -6.4 v -34.5 h 6.4 z"
   id="path450"
   inkscape:connector-curvature="0"
   style="fill:#3b31f5" />
		<path
   class="st2"
   d="m 518.6,486.3 h -10.9 l -2.5,8.1 h -6.9 L 510,459.9 h 6.4 l 11.7,34.5 h -6.9 z m -9.1,-5.9 h 7.3 l -3.6,-12 z"
   id="path452"
   inkscape:connector-curvature="0"
   style="fill:#3b31f5" />
	</g>
	<g
   id="g470">
		<path
   class="st2"
   d="M 238.9,862.2 V 855 l 21.5,-8.1 -21.5,-8.1 v -7.2 h 34.5 v 6.4 h -21.3 l 18.1,6.6 v 4.6 l -18.1,6.6 h 21.3 v 6.4 z"
   id="path456"
   inkscape:connector-curvature="0"
   style="fill:#3b31f5" />
		<path
   class="st2"
   d="m 238.9,803.2 h 5.9 v 14.9 h 7.2 v -12 h 5.9 v 12 h 9.5 v -15.4 h 5.9 v 21.8 h -34.5 v -21.3 z"
   id="path458"
   inkscape:connector-curvature="0"
   style="fill:#3b31f5" />
		<path
   class="st2"
   d="M 273.3,796.8 H 238.8 V 786 c 0,-8.1 5.2,-16 17.2,-16 12.1,0 17.2,7.9 17.2,16 v 10.8 z m -5.9,-8.8 c 0,-5.5 -2.2,-11.6 -11.3,-11.6 -9.2,0 -11.3,6.1 -11.3,11.6 v 2.4 h 22.6 z"
   id="path460"
   inkscape:connector-curvature="0"
   style="fill:#3b31f5" />
		<path
   class="st2"
   d="m 273.3,757.8 v 6.4 h -34.5 v -6.4 z"
   id="path462"
   inkscape:connector-curvature="0"
   style="fill:#3b31f5" />
		<path
   class="st2"
   d="m 273.3,750.7 h -34.5 v -10.8 c 0,-8.1 5.2,-16 17.2,-16 12.1,0 17.2,7.9 17.2,16 v 10.8 z m -5.9,-8.7 c 0,-5.5 -2.2,-11.6 -11.3,-11.6 -9.2,0 -11.3,6.1 -11.3,11.6 v 2.4 h 22.6 z"
   id="path464"
   inkscape:connector-curvature="0"
   style="fill:#3b31f5" />
		<path
   class="st2"
   d="m 265.2,701.7 v 10.9 l 8.1,2.5 V 722 L 238.8,710.3 V 704 l 34.5,-11.7 v 6.9 z m -5.9,9.1 v -7.3 l -12,3.6 z"
   id="path466"
   inkscape:connector-curvature="0"
   style="fill:#3b31f5" />
		<path
   class="st2"
   d="m 248,673.3 c -2.6,1.3 -3.6,2.8 -3.6,4.8 0,1.9 1.3,3.3 3.1,3.3 6,0 5.2,-14.7 15.5,-14.7 6.7,0 10.7,4.4 10.7,11 0,6.3 -4.4,10.8 -9.6,11.9 l -3.2,-5.2 c 3.7,-1 7,-3.1 7,-6.8 0,-2.7 -1.3,-4.5 -4.5,-4.5 -5.7,0 -4.6,14.4 -15.5,14.4 -5.2,0 -9.3,-4 -9.3,-9.4 0,-4.6 2.3,-8.1 6.2,-9.9 z"
   id="path468"
   inkscape:connector-curvature="0"
   style="fill:#3b31f5" />
	</g>
	<g
   id="g488">
		<path
   class="st2"
   d="m 303.4,860.2 c -2.6,1.3 -3.6,2.8 -3.6,4.8 0,1.9 1.3,3.3 3.1,3.3 6,0 5.2,-14.7 15.5,-14.7 6.7,0 10.7,4.4 10.7,11 0,6.3 -4.4,10.8 -9.6,11.9 l -3.2,-5.2 c 3.7,-1 7,-3.1 7,-6.8 0,-2.7 -1.3,-4.5 -4.5,-4.5 -5.7,0 -4.6,14.4 -15.5,14.4 -5.2,0 -9.3,-4 -9.3,-9.4 0,-4.6 2.3,-8.1 6.2,-9.9 z"
   id="path472"
   inkscape:connector-curvature="0"
   style="fill:#3b31f5" />
		<path
   class="st2"
   d="m 311.5,816.5 c 12,0 17.6,7.5 17.6,16.2 0,8.7 -5.7,16.2 -17.6,16.2 -12,0 -17.6,-7.5 -17.6,-16.2 0,-8.7 5.6,-16.2 17.6,-16.2 z m 0,26 c 8.2,0 11.7,-4.6 11.7,-9.7 0,-5.2 -3.5,-9.7 -11.7,-9.7 -8.2,0 -11.7,4.6 -11.7,9.7 0,5.1 3.5,9.7 11.7,9.7 z"
   id="path474"
   inkscape:connector-curvature="0"
   style="fill:#3b31f5" />
		<path
   class="st2"
   d="m 305.8,786.4 c -3.5,1.3 -6,3.7 -6,8.5 0,5.3 3.7,9.8 11.7,9.8 8,0 11.7,-4.5 11.7,-9.8 0,-4.8 -2.5,-7.2 -6,-8.5 l 1.5,-5.8 c 6.6,1.6 10.4,6.8 10.4,14.3 0,8.6 -6.1,16.3 -17.6,16.3 -11.5,0 -17.6,-7.7 -17.6,-16.3 0,-7.5 3.8,-12.6 10.4,-14.3 z"
   id="path476"
   inkscape:connector-curvature="0"
   style="fill:#3b31f5" />
		<path
   class="st2"
   d="m 328.7,768.6 v 6.4 h -34.5 v -6.4 z"
   id="path478"
   inkscape:connector-curvature="0"
   style="fill:#3b31f5" />
		<path
   class="st2"
   d="M 320.6,744.1 V 755 l 8.1,2.5 v 6.9 l -34.5,-11.7 v -6.4 l 34.5,-11.7 v 6.9 z m -5.9,9.1 v -7.3 l -12,3.6 z"
   id="path480"
   inkscape:connector-curvature="0"
   style="fill:#3b31f5" />
		<path
   class="st2"
   d="m 294.3,724 h 28.5 v -14.6 h 5.9 v 21 H 294.2 V 724 Z"
   id="path482"
   inkscape:connector-curvature="0"
   style="fill:#3b31f5" />
		<path
   class="st2"
   d="m 294.3,682.3 h 5.9 v 14.9 h 7.2 v -12 h 5.9 v 12 h 9.5 v -15.4 h 5.9 v 21.8 h -34.5 v -21.3 z"
   id="path484"
   inkscape:connector-curvature="0"
   style="fill:#3b31f5" />
		<path
   class="st2"
   d="m 303.4,661.8 c -2.6,1.3 -3.6,2.8 -3.6,4.8 0,1.9 1.3,3.3 3.1,3.3 6,0 5.2,-14.7 15.5,-14.7 6.7,0 10.7,4.4 10.7,11 0,6.3 -4.4,10.8 -9.6,11.9 l -3.2,-5.2 c 3.7,-1 7,-3.1 7,-6.8 0,-2.7 -1.3,-4.5 -4.5,-4.5 -5.7,0 -4.6,14.4 -15.5,14.4 -5.2,0 -9.3,-4 -9.3,-9.4 0,-4.6 2.3,-8.1 6.2,-9.9 z"
   id="path486"
   inkscape:connector-curvature="0"
   style="fill:#3b31f5" />
	</g>
	<g
   id="g504">
		<path
   class="st2"
   d="m 508.6,860 v -7.2 l 21.5,-8.1 -21.5,-8.1 v -7.2 h 34.5 v 6.4 h -21.3 l 18.1,6.6 v 4.6 l -18.1,6.6 h 21.3 v 6.4 z"
   id="path490"
   inkscape:connector-curvature="0"
   style="fill:#3b31f5" />
		<path
   class="st2"
   d="m 508.6,800.9 h 5.9 v 14.9 h 7.2 v -12 h 5.9 v 12 h 9.5 v -15.4 h 5.9 v 21.8 h -34.5 v -21.3 z"
   id="path492"
   inkscape:connector-curvature="0"
   style="fill:#3b31f5" />
		<path
   class="st2"
   d="m 543.1,794.5 h -34.5 v -10.8 c 0,-8.1 5.2,-16 17.2,-16 12.1,0 17.2,7.9 17.2,16 v 10.8 z m -5.9,-8.7 c 0,-5.5 -2.2,-11.6 -11.3,-11.6 -9.2,0 -11.3,6.1 -11.3,11.6 v 2.4 h 22.6 z"
   id="path494"
   inkscape:connector-curvature="0"
   style="fill:#3b31f5" />
		<path
   class="st2"
   d="m 543.1,755.5 v 6.4 h -34.5 v -6.4 z"
   id="path496"
   inkscape:connector-curvature="0"
   style="fill:#3b31f5" />
		<path
   class="st2"
   d="m 543.1,748.5 h -34.5 v -10.8 c 0,-8.1 5.2,-16 17.2,-16 12.1,0 17.2,7.9 17.2,16 v 10.8 z m -5.9,-8.8 c 0,-5.5 -2.2,-11.6 -11.3,-11.6 -9.2,0 -11.3,6.1 -11.3,11.6 v 2.4 h 22.6 z"
   id="path498"
   inkscape:connector-curvature="0"
   style="fill:#3b31f5" />
		<path
   class="st2"
   d="m 534.9,699.5 v 10.9 l 8.1,2.5 v 6.9 l -34.5,-11.7 v -6.4 L 543,690 v 6.9 z m -5.9,9.1 v -7.3 l -12,3.6 z"
   id="path500"
   inkscape:connector-curvature="0"
   style="fill:#3b31f5" />
		<path
   class="st2"
   d="m 517.8,671.1 c -2.6,1.3 -3.6,2.8 -3.6,4.8 0,1.9 1.3,3.3 3.1,3.3 6,0 5.2,-14.7 15.5,-14.7 6.7,0 10.7,4.4 10.7,11 0,6.3 -4.4,10.8 -9.6,11.9 l -3.2,-5.2 c 3.7,-1 7,-3.1 7,-6.8 0,-2.7 -1.3,-4.5 -4.5,-4.5 -5.7,0 -4.6,14.4 -15.5,14.4 -5.2,0 -9.3,-4 -9.3,-9.4 0,-4.6 2.3,-8.1 6.2,-9.9 z"
   id="path502"
   inkscape:connector-curvature="0"
   style="fill:#3b31f5" />
	</g>
	<g
   id="g538">
		<g
   id="g536">
			<defs
   id="defs507">
				<rect
   id="SVGID_13_"
   x="143.7"
   y="370.89999"
   width="538.09998"
   height="703.40002" />
			</defs>
			<clipPath
   id="SVGID_14_">
				<use
   xlink:href="#SVGID_13_"
   style="overflow:visible"
   id="use509"
   x="0"
   y="0"
   width="100%"
   height="100%" />
			</clipPath>
			<g
   class="st8"
   clip-path="url(#SVGID_14_)"
   id="g534">
				<path
   class="st2"
   d="m 590.3,898 v 10.9 l 8.1,2.5 v 6.9 l -34.5,-11.7 v -6.4 l 34.5,-11.7 v 6.9 z m -5.9,9.1 v -7.3 l -12,3.6 z"
   id="path512"
   inkscape:connector-curvature="0"
   style="fill:#3b31f5" />
				<path
   class="st2"
   d="m 564,883.9 v -7.2 l 21.5,-8.1 -21.5,-8.1 v -7.2 h 34.5 v 6.4 h -21.3 l 18.1,6.6 v 4.6 l -18.1,6.6 h 21.3 v 6.4 z"
   id="path514"
   inkscape:connector-curvature="0"
   style="fill:#3b31f5" />
				<path
   class="st2"
   d="m 564,833.6 c 0,-5.9 3.1,-9.8 9.3,-9.8 2.8,0 5.2,1.2 6.3,3.4 1.3,-3.2 4,-5.2 8.4,-5.2 6.7,0 10.4,4.3 10.4,11.4 v 12.8 h -34.5 v -12.6 z m 5.9,6.2 h 7.5 v -5.9 c 0,-2.6 -0.9,-4 -3.7,-4 -2.8,0 -3.7,1.5 -3.7,4.2 v 5.7 z m 13.4,0 h 9.3 v -5.9 c 0,-4 -1.7,-5.6 -4.6,-5.6 -2.9,0 -4.6,1.6 -4.6,5.6 z"
   id="path516"
   inkscape:connector-curvature="0"
   style="fill:#3b31f5" />
				<path
   class="st2"
   d="m 598.4,810 v 6.4 H 563.9 V 810 Z"
   id="path518"
   inkscape:connector-curvature="0"
   style="fill:#3b31f5" />
				<path
   class="st2"
   d="m 564,781.6 h 5.9 v 14.9 h 7.2 v -12 h 5.9 v 12 h 9.5 v -15.4 h 5.9 v 21.8 h -34.5 v -21.3 z"
   id="path520"
   inkscape:connector-curvature="0"
   style="fill:#3b31f5" />
				<path
   class="st2"
   d="m 564,749.4 h 34.5 v 6.7 l -22.7,12.6 h 22.7 v 6.4 H 564 v -6.7 l 22.7,-12.6 H 564 Z"
   id="path522"
   inkscape:connector-curvature="0"
   style="fill:#3b31f5" />
				<path
   class="st2"
   d="m 564,743.9 v -25.5 h 5.9 v 9.5 h 28.5 v 6.4 h -28.5 v 9.5 z"
   id="path524"
   inkscape:connector-curvature="0"
   style="fill:#3b31f5" />
				<path
   class="st2"
   d="m 590.3,699.3 v 10.9 l 8.1,2.5 v 6.9 l -34.5,-11.7 v -6.4 l 34.5,-11.7 v 6.9 z m -5.9,9.1 v -7.3 l -12,3.6 z"
   id="path526"
   inkscape:connector-curvature="0"
   style="fill:#3b31f5" />
				<path
   class="st2"
   d="m 564,679.2 h 28.5 v -14.6 h 5.9 v 21 h -34.5 v -6.4 z"
   id="path528"
   inkscape:connector-curvature="0"
   style="fill:#3b31f5" />
				<path
   class="st2"
   d="m 564,637.5 h 5.9 v 14.9 h 7.2 v -12 h 5.9 v 12 h 9.5 V 637 h 5.9 v 21.8 h -34.5 v -21.3 z"
   id="path530"
   inkscape:connector-curvature="0"
   style="fill:#3b31f5" />
				<path
   class="st2"
   d="m 573.2,617 c -2.6,1.3 -3.6,2.8 -3.6,4.8 0,1.9 1.3,3.3 3.1,3.3 6,0 5.2,-14.7 15.5,-14.7 6.7,0 10.7,4.4 10.7,11 0,6.3 -4.4,10.8 -9.6,11.9 l -3.2,-5.2 c 3.7,-1 7,-3.1 7,-6.8 0,-2.7 -1.3,-4.5 -4.5,-4.5 -5.7,0 -4.6,14.4 -15.5,14.4 -5.2,0 -9.3,-4 -9.3,-9.4 0,-4.6 2.3,-8.1 6.2,-9.9 z"
   id="path532"
   inkscape:connector-curvature="0"
   style="fill:#3b31f5" />
			</g>
		</g>
	</g>
	<g
   id="g568">
		<path
   class="st2"
   d="m 219.2,997.7 h 25.5 v 5.9 h -9.5 v 28.5 h -6.4 v -28.5 h -9.5 v -5.9 z"
   id="path540"
   inkscape:connector-curvature="0"
   style="fill:#3b31f5" />
		<path
   class="st2"
   d="m 255.2,1032.1 h -6.4 v -34.5 h 6.4 z"
   id="path542"
   inkscape:connector-curvature="0"
   style="fill:#3b31f5" />
		<path
   class="st2"
   d="m 284.9,1009.2 c -1.3,-3.5 -3.7,-6 -8.5,-6 -5.3,0 -9.8,3.7 -9.8,11.7 0,8 4.5,11.7 9.8,11.7 4.8,0 7.2,-2.5 8.5,-6 l 5.8,1.5 c -1.6,6.6 -6.8,10.4 -14.3,10.4 -8.6,0 -16.3,-6.1 -16.3,-17.6 0,-11.5 7.7,-17.6 16.3,-17.6 7.5,0 12.6,3.8 14.3,10.4 z"
   id="path544"
   inkscape:connector-curvature="0"
   style="fill:#3b31f5" />
		<path
   class="st2"
   d="m 327.3,997.7 v 5.9 h -14.9 v 7.2 h 12 v 5.9 h -12 v 9.5 h 15.4 v 5.9 H 306 v -34.5 z"
   id="path546"
   inkscape:connector-curvature="0"
   style="fill:#3b31f5" />
		<path
   class="st2"
   d="m 350,1032.1 h -6.4 v -34.5 h 6.4 z"
   id="path548"
   inkscape:connector-curvature="0"
   style="fill:#3b31f5" />
		<path
   class="st2"
   d="m 381.4,997.7 v 34.5 h -6.7 l -12.6,-22.7 v 22.7 h -6.4 v -34.5 h 6.7 l 12.6,22.7 v -22.7 z"
   id="path550"
   inkscape:connector-curvature="0"
   style="fill:#3b31f5" />
		<path
   class="st2"
   d="m 412.8,997.7 v 34.5 h -6.7 l -12.6,-22.7 v 22.7 h -6.4 v -34.5 h 6.7 l 12.6,22.7 v -22.7 z"
   id="path552"
   inkscape:connector-curvature="0"
   style="fill:#3b31f5" />
		<path
   class="st2"
   d="m 450.3,1014.9 c 0,12 -7.5,17.6 -16.2,17.6 -8.7,0 -16.2,-5.7 -16.2,-17.6 0,-11.9 7.5,-17.6 16.2,-17.6 8.7,0 16.2,5.7 16.2,17.6 z m -26,0 c 0,8.2 4.6,11.7 9.7,11.7 5.1,0 9.7,-3.5 9.7,-11.7 0,-8.2 -4.6,-11.7 -9.7,-11.7 -5.1,0 -9.7,3.5 -9.7,11.7 z"
   id="path554"
   inkscape:connector-curvature="0"
   style="fill:#3b31f5" />
		<path
   class="st2"
   d="m 462.2,1032.1 -11.6,-34.5 h 7.1 l 7.7,25.5 7.7,-25.5 h 7.1 l -11.6,34.5 z"
   id="path556"
   inkscape:connector-curvature="0"
   style="fill:#3b31f5" />
		<path
   class="st2"
   d="m 495.5,1024 h -10.9 l -2.5,8.1 h -6.9 l 11.7,-34.5 h 6.4 l 11.7,34.5 h -6.9 z m -9.1,-5.9 h 7.3 l -3.6,-12 z"
   id="path558"
   inkscape:connector-curvature="0"
   style="fill:#3b31f5" />
		<path
   class="st2"
   d="m 529.7,1009.2 c -1.3,-3.5 -3.7,-6 -8.5,-6 -5.3,0 -9.8,3.7 -9.8,11.7 0,8 4.5,11.7 9.8,11.7 4.8,0 7.2,-2.5 8.5,-6 l 5.8,1.5 c -1.6,6.6 -6.8,10.4 -14.3,10.4 -8.6,0 -16.3,-6.1 -16.3,-17.6 0,-11.5 7.7,-17.6 16.3,-17.6 7.5,0 12.6,3.8 14.3,10.4 z"
   id="path560"
   inkscape:connector-curvature="0"
   style="fill:#3b31f5" />
		<path
   class="st2"
   d="m 546,1032.1 h -6.4 v -34.5 h 6.4 z"
   id="path562"
   inkscape:connector-curvature="0"
   style="fill:#3b31f5" />
		<path
   class="st2"
   d="m 583.5,1014.9 c 0,12 -7.5,17.6 -16.2,17.6 -8.7,0 -16.2,-5.7 -16.2,-17.6 0,-11.9 7.5,-17.6 16.2,-17.6 8.7,0 16.2,5.7 16.2,17.6 z m -26,0 c 0,8.2 4.6,11.7 9.7,11.7 5.1,0 9.7,-3.5 9.7,-11.7 0,-8.2 -4.6,-11.7 -9.7,-11.7 -5.1,0 -9.7,3.5 -9.7,11.7 z m 8.6,-27.3 h 8.3 l -6.7,7.3 H 563 Z"
   id="path564"
   inkscape:connector-curvature="0"
   style="fill:#3b31f5" />
		<path
   class="st2"
   d="m 613.5,997.7 v 34.5 h -6.7 l -12.6,-22.7 v 22.7 h -6.4 v -34.5 h 6.7 l 12.6,22.7 v -22.7 z"
   id="path566"
   inkscape:connector-curvature="0"
   style="fill:#3b31f5" />
	</g>
	<g
   id="g572">
		<path
   class="st2"
   d="M 637.5,1061.3 H 201.4 v -91.5 h 436.1 z m -429.9,-6.1 H 631.4 V 976 H 207.6 Z"
   id="path570"
   inkscape:connector-curvature="0"
   style="fill:#3b31f5" />
	</g>
	<g
   id="g576">
		<path
   class="st2"
   d="M 637.5,506.7 H 201.4 V 384.2 H 637.5 Z M 207.6,500.6 H 631.4 V 390.4 H 207.6 Z"
   id="path574"
   inkscape:connector-curvature="0"
   style="fill:#3b31f5" />
	</g>
	<g
   id="g580">
		<path
   class="st2"
   d="M 374.9,933.7 H 200.5 V 584.8 H 374.9 Z M 206.6,927.5 H 368.7 V 591 H 206.6 Z"
   id="path578"
   inkscape:connector-curvature="0"
   style="fill:#3b31f5" />
	</g>
	<g
   id="g584">
		<path
   class="st2"
   d="M 635.4,933.7 H 461 V 584.8 H 635.4 Z M 467.1,927.5 H 629.2 V 591 H 467.1 Z"
   id="path582"
   inkscape:connector-curvature="0"
   style="fill:#3b31f5" />
	</g>
	<g
   id="g588">
		<polygon
   class="st2"
   points="651.2,547.9 187.8,547.9 187.8,569.6 181.7,569.6 181.7,541.7 657.3,541.7 657.3,569.6 651.2,569.6 "
   id="polygon586"
   style="fill:#3b31f5" />
	</g>
	<g
   id="g592">
		<rect
   x="416.39999"
   y="516.90002"
   class="st2"
   width="6.1999998"
   height="27.9"
   id="rect590"
   style="fill:#3b31f5" />
	</g>
</g>
</svg>